
        <svg xmlns="http://www.w3.org/2000/svg" xmlns:xlink="http://www.w3.org/1999/xlink" version="1.1" width="3166.6666666666665" height="1416.6666666666667" viewBox="0 0 3166.6666666666665 1416.6666666666667">
			
			<g transform="scale(8.333333333333334) translate(10, 10)">
				<defs id="SvgjsDefs3829"/><g id="SvgjsG3830" featureKey="rootContainer" transform="matrix(1,0,0,1,0,0)" fill="#000"><rect xmlns="http://www.w3.org/2000/svg" width="360" height="150" rx="10" ry="10"/></g><g id="SvgjsG3831" featureKey="S6ay6y-0" transform="matrix(1.868355435406627,0,0,1.868355435406627,-23.99229976191554,-18.015431835894553)" fill="#ffffff"><path xmlns="http://www.w3.org/2000/svg" d="M74.182,63.137v-8.361V43.824V32.869v-0.335l-0.287-0.176l-6.451-3.963l-6.457-3.958l-6.452-3.957  l-0.216-0.133l-0.245,0.062l-10.027,2.546l-10.027,2.552l-10.021,2.546l-0.453,0.115v0.467v10.96v10.952v10.952v0.336l0.286,0.176  l6.452,3.965l6.458,3.958l6.45,3.958l0.216,0.133l0.245-0.062l9.784-2.484l6.241,3.825l6.45,3.958l0.217,0.133l0.246-0.062  l10.026-2.551l0.452-0.115v-0.467V65.242v-0.336l-0.287-0.176L74.182,63.137z M44.144,23.858l5.745,3.526l-9.216,2.339l-5.744-3.52  L44.144,23.858z M54.172,21.312l5.738,3.521l-9.21,2.346l-5.745-3.526L54.172,21.312z M66.367,28.791l-9.216,2.345l-5.738-3.521  l9.21-2.346L66.367,28.791z M72.819,32.753l-9.21,2.341l-5.744-3.521l9.215-2.345L72.819,32.753z M34.117,26.41l5.744,3.521  l-9.215,2.345l-5.739-3.525L34.117,26.41z M73.281,62.937l-2.971-1.819v-5.201l2.971-0.755V62.937z M40.574,30.368l5.739,3.521  l-9.211,2.345l-5.744-3.521L40.574,30.368z M37.354,65.295l3.897-3.898l0.401,0.245l-4.298,4.3V65.295z M30.896,55.689l0.402-0.402  l0.4,0.246l-0.803,0.803V55.689z M42.752,61.613l-0.397-0.244l0.85-0.854v0.644L42.752,61.613z M43.205,61.584v0.307l-0.189-0.117  L43.205,61.584z M42.088,61.205l-0.4-0.246l1.517-1.518v0.646L42.088,61.205z M30.297,37.662l-3.319,3.319l-0.401-0.246l3.72-3.719  V37.662z M30.297,38.085v0.646l-2.654,2.656l-0.402-0.247L30.297,38.085z M30.297,39.159v0.644l-1.991,1.991l-0.398-0.244  L30.297,39.159z M30.297,40.229v0.643l-1.329,1.33l-0.398-0.244L30.297,40.229z M30.297,41.297v0.645l-0.665,0.666l-0.4-0.245  L30.297,41.297z M30.297,42.373v0.64l-0.002,0.002l-0.396-0.243L30.297,42.373z M37.354,50.948v-0.641l1.403-1.401l0.396,0.243  L37.354,50.948z M39.418,49.312l0.397,0.244l-2.462,2.461V51.38L39.418,49.312z M40.081,49.719l0.398,0.244l-3.126,3.126v-0.641  L40.081,49.719z M38.489,48.742l-1.135,1.136v-0.646l0.735-0.735L38.489,48.742z M37.354,48.807v-0.645l0.072-0.072l0.399,0.245  L37.354,48.807z M40.746,50.127l0.397,0.244l-3.79,3.792V53.52L40.746,50.127z M41.407,50.532l0.4,0.246l-4.454,4.453V54.59  L41.407,50.532z M33.844,45.894l-2.948,2.948v-0.646l2.547-2.546L33.844,45.894z M34.107,46.056l0.401,0.246l-3.612,3.613v-0.647  L34.107,46.056z M34.771,46.462l0.4,0.246l-4.275,4.274v-0.645L34.771,46.462z M35.435,46.87l0.4,0.245l-4.939,4.938v-0.645  L35.435,46.87z M36.754,46.974l-0.219-0.134l0.219-0.219V46.974z M36.271,46.679l-0.4-0.246l0.882-0.882v0.646L36.271,46.679z   M35.608,46.271l-0.4-0.246l1.546-1.546v0.646L35.608,46.271z M34.944,45.865l-0.401-0.246l2.21-2.21v0.647L34.944,45.865z   M34.28,45.458l-0.4-0.246l2.874-2.875v0.647L34.28,45.458z M33.617,45.051l-0.403-0.247l3.54-3.537v0.645L33.617,45.051z   M32.949,44.642l-0.398-0.245l4.203-4.201v0.645L32.949,44.642z M32.287,44.236l-0.397-0.244l4.865-4.865v0.645L32.287,44.236z   M33.181,45.488l-2.285,2.284V47.12l1.881-1.879L33.181,45.488z M30.896,52.479l5.202-5.202l0.4,0.246l-5.603,5.601V52.479z   M36.754,49.407l-5.282,5.283l-0.4-0.246l5.682-5.682V49.407z M36.754,49.832v0.646l-4.618,4.619l-0.401-0.246L36.754,49.832z   M36.754,50.907v0.641l-3.956,3.956l-0.4-0.246L36.754,50.907z M36.754,51.979v0.64l-3.292,3.292l-0.396-0.242L36.754,51.979z   M36.754,53.049v0.641l-2.629,2.629l-0.398-0.245L36.754,53.049z M37.354,55.658l4.716-4.719l0.4,0.246l-5.116,5.117V55.658z   M41.843,50.096l1.362-1.363v0.646l-0.961,0.963L41.843,50.096z M41.579,49.934l-0.397-0.244l2.023-2.027v0.646L41.579,49.934z   M40.916,49.527l-0.399-0.245l2.688-2.69v0.646L40.916,49.527z M40.252,49.12l-0.397-0.244l3.35-3.354v0.646L40.252,49.12z   M39.589,48.713l-0.397-0.243l4.013-4.02v0.647L39.589,48.713z M38.925,48.306l-0.4-0.245l4.68-4.681v0.646L38.925,48.306z   M38.262,47.898l-0.4-0.245l5.343-5.345v0.647L38.262,47.898z M36.754,38.699l-5.128,5.132l-0.403-0.248l5.531-5.527V38.699z   M31.189,44.267l-0.292,0.291v-0.47L31.189,44.267z M31.453,44.428l0.397,0.244l-0.954,0.954v-0.645L31.453,44.428z M32.114,44.834  l0.399,0.244l-1.617,1.618V46.05L32.114,44.834z M30.297,50.514l-2.141,2.141l-0.401-0.246l2.542-2.542V50.514z M30.297,50.938  v0.645l-1.479,1.479l-0.399-0.244L30.297,50.938z M36.754,47.691v0.646l-5.857,5.857v-0.646L36.754,47.691z M34.388,56.479  l2.366-2.36v0.644l-1.963,1.964L34.388,56.479z M42.736,51.348l0.398,0.244l-5.781,5.783V56.73L42.736,51.348z M43.171,50.911  l0.034-0.034v0.054L43.171,50.911z M42.906,50.748l-0.4-0.245l0.699-0.7v0.646L42.906,50.748z M37.599,47.492l-0.246-0.15v-0.25  l5.851-5.854v0.646L37.599,47.492z M36.754,37.633l-5.794,5.789l-0.063-0.038v-0.541l5.857-5.857V37.633z M30.297,49.441  l-2.806,2.806L27.088,52l3.209-3.206V49.441z M29.082,53.223l1.215-1.215v0.645l-0.815,0.815L29.082,53.223z M30.297,53.078v0.645  l-0.152,0.152l-0.399-0.245L30.297,53.078z M35.054,56.889l1.7-1.699v0.641l-1.302,1.303L35.054,56.889z M36.754,56.258v0.644  l-0.639,0.639l-0.398-0.244L36.754,56.258z M36.754,57.33v0.603l-0.373-0.229L36.754,57.33z M41.024,60.553l2.18-2.182v0.646  l-1.78,1.781L41.024,60.553z M40.762,60.392l-0.401-0.246l2.844-2.845v0.646L40.762,60.392z M40.098,59.984l-0.4-0.246l3.507-3.507  v0.646L40.098,59.984z M39.435,59.577l-0.401-0.245l4.171-4.171v0.646L39.435,59.577z M38.771,59.17l-0.401-0.246l4.834-4.84v0.653  L38.771,59.17z M38.104,58.762l-0.396-0.244l5.497-5.504v0.646L38.104,58.762z M37.445,58.357l-0.092-0.057v-0.5l5.851-5.852v0.641  L37.445,58.357z M43.205,40.814l-5.851,5.853v-0.646l5.535-5.535l0.316,0.194V40.814z M37.354,45.597v-0.646l4.871-4.872  l0.401,0.246L37.354,45.597z M37.354,44.526V43.88l4.207-4.208l0.401,0.246L37.354,44.526z M37.354,43.456v-0.647l3.543-3.544  l0.401,0.246L37.354,43.456z M37.354,42.385v-0.647l2.877-2.881l0.403,0.248L37.354,42.385z M37.354,41.312v-0.644l2.218-2.216  l0.397,0.244L37.354,41.312z M37.354,40.243v-0.646l1.554-1.554l0.401,0.247L37.354,40.243z M37.354,39.173v-0.646l0.888-0.892  l0.403,0.247L37.354,39.173z M37.354,38.099v-0.642l0.227-0.227l0.397,0.244L37.354,38.099z M30.896,42.414v-0.641l5.353-5.358  l0.404,0.248L30.896,42.414z M30.896,41.343v-0.646l4.689-4.69l0.401,0.246L30.896,41.343z M30.896,40.271v-0.643l4.026-4.028  l0.399,0.245L30.896,40.271z M30.896,39.204v-0.645l3.362-3.365l0.401,0.247L30.896,39.204z M30.896,38.132v-0.646l2.699-2.699  l0.4,0.245L30.896,38.132z M30.896,37.062v-0.646l2.035-2.035l0.401,0.246L30.896,37.062z M30.896,35.992v-0.646l1.371-1.372  l0.402,0.246L30.896,35.992z M30.896,34.92v-0.645l0.708-0.708l0.4,0.245L30.896,34.92z M30.896,33.851v-0.646l0.044-0.045  l0.4,0.246L30.896,33.851z M30.297,35.52l-4.646,4.646L25.25,39.92l5.046-5.045V35.52z M30.297,35.945v0.646l-3.982,3.982  l-0.4-0.246L30.297,35.945z M30.297,47.296l-4.133,4.137l-0.4-0.245l4.534-4.537V47.296z M30.297,47.72v0.651l-3.472,3.468  l-0.398-0.245L30.297,47.72z M31.036,55.126l-0.14,0.14V55.04L31.036,55.126z M31.962,55.694l0.4,0.245l-1.466,1.467v-0.646  L31.962,55.694z M32.629,56.104l0.396,0.244l-2.128,2.129v-0.643L32.629,56.104z M30.896,58.9l2.393-2.391l0.399,0.244l-2.792,2.793  V58.9z M33.951,56.916l0.403,0.248l-3.458,3.453v-0.644L33.951,56.916z M30.896,61.041l3.721-3.717l0.398,0.245l-4.119,4.118V61.041  z M37.667,59.197l-0.314,0.314v-0.507L37.667,59.197z M37.934,59.361l0.401,0.245l-0.981,0.981v-0.646L37.934,59.361z   M38.598,59.768l0.4,0.246l-1.645,1.645v-0.646L38.598,59.768z M39.261,60.175l0.401,0.245l-2.308,2.309v-0.646L39.261,60.175z   M39.924,60.582l0.401,0.246L37.354,63.8v-0.647L39.924,60.582z M40.588,60.989l0.4,0.245l-3.635,3.635v-0.646L40.588,60.989z   M30.297,34.45l-5.31,5.309l-0.4-0.245l5.709-5.709V34.45z M30.297,46.226L25.5,51.025l-0.399-0.245l5.196-5.2V46.226z   M26.389,52.275l-1.945,1.948v-0.646l1.546-1.547L26.389,52.275z M26.652,52.437l0.403,0.247l-2.611,2.611v-0.646L26.652,52.437z   M27.318,52.846l0.401,0.245l-3.275,3.274v-0.646L27.318,52.846z M27.982,53.252l0.399,0.245l-3.937,3.938v-0.646L27.982,53.252z   M28.646,53.659l0.399,0.245l-4.601,4.602v-0.646L28.646,53.659z M29.309,54.066l0.4,0.245l-5.265,5.265V58.93L29.309,54.066z   M30.896,62.113l4.384-4.381l0.398,0.244l-4.782,4.781V62.113z M37.354,66.365l4.565-4.561l0.398,0.244l-4.963,4.961V66.365z   M27.624,31.124l0.401,0.247l-3.581,3.581v-0.646L27.624,31.124z M24.444,33.881v-0.648l2.513-2.519l0.404,0.248L24.444,33.881z   M28.288,31.531l0.397,0.244l-4.241,4.245v-0.646L28.288,31.531z M28.947,31.937l0.404,0.248l-4.907,4.907v-0.646L28.947,31.937z   M26.036,30.148l-1.591,1.592v-0.648l1.187-1.192L26.036,30.148z M26.298,30.31l0.397,0.244l-2.25,2.255v-0.645L26.298,30.31z   M29.614,32.346l0.4,0.246l-5.569,5.57v-0.646L29.614,32.346z M30.276,32.753l0.021,0.013v0.615l-5.853,5.853v-0.648L30.276,32.753z   M25.878,41.01l-1.434,1.433v-0.646l1.033-1.032L25.878,41.01z M26.141,41.171l0.401,0.246l-2.098,2.097v-0.647L26.141,41.171z   M26.805,41.578l0.402,0.247l-2.763,2.764v-0.652L26.805,41.578z M27.472,41.987l0.397,0.244l-3.425,3.428v-0.646L27.472,41.987z   M28.133,42.393l0.398,0.244l-4.087,4.093v-0.646L28.133,42.393z M28.796,42.799l0.4,0.245L24.444,47.8v-0.646L28.796,42.799z   M29.462,43.208l0.397,0.243l-5.415,5.419v-0.646L29.462,43.208z M30.125,43.614l0.172,0.105v0.364l-5.853,5.857v-0.646  L30.125,43.614z M24.444,50.365l5.853-5.857v0.647l-5.463,5.461l-0.39-0.239V50.365z M25.728,51.869l-1.283,1.284v-0.646  l0.883-0.885L25.728,51.869z M29.973,54.473l0.324,0.199v0.123l-5.853,5.852V60L29.973,54.473z M30.896,63.188l5.048-5.048  l0.4,0.245l-5.448,5.443V63.188z M36.608,58.547l0.146,0.09v0.41l-5.857,5.857v-0.65L36.608,58.547z M37.354,67.436l5.226-5.225  l0.399,0.244l-5.625,5.631V67.436z M43.804,40.746l9.428-2.395v10.336l-9.428,2.395V40.746z M53.836,49.458l-0.004,0.003v-0.005  L53.836,49.458z M59.432,63.138l-0.4-0.246l0.659-0.655v0.646L59.432,63.138z M58.768,62.73l-0.398-0.244l1.321-1.322v0.648  L58.768,62.73z M58.104,62.324l-0.399-0.245l1.985-1.983v0.645L58.104,62.324z M57.439,61.916l-0.4-0.244l2.651-2.651v0.65  L57.439,61.916z M56.775,61.51l-0.399-0.245l3.314-3.314v0.646L56.775,61.51z M56.112,61.103l-0.399-0.245l3.978-3.977v0.646  L56.112,61.103z M55.45,60.697l-0.401-0.246l4.642-4.645v0.65L55.45,60.697z M54.785,60.289l-0.401-0.246l5.307-5.306v0.646  L54.785,60.289z M54.119,59.881l-0.287-0.176v-0.181l5.858-5.857v0.646L54.119,59.881z M59.69,53.243l-5.858,5.857v-0.646  l5.58-5.578l0.278,0.17V53.243z M53.832,58.031v-0.646l4.916-4.916l0.4,0.246L53.832,58.031z M53.832,56.961v-0.647l4.249-4.253  l0.403,0.248L53.832,56.961z M53.832,55.89v-0.653l3.584-3.583l0.402,0.246L53.832,55.89z M53.832,54.812v-0.646l2.925-2.918  l0.396,0.243L53.832,54.812z M53.832,53.744v-0.647l2.258-2.257l0.404,0.248L53.832,53.744z M53.832,52.673v-0.646l1.594-1.593  l0.4,0.245L53.832,52.673z M53.832,51.603v-0.646l0.934-0.929l0.398,0.244L53.832,51.603z M53.832,50.533v-0.647l0.266-0.266  l0.404,0.247L53.832,50.533z M53.947,60.479l0.4,0.246l-0.516,0.516v-0.646L53.947,60.479z M54.611,60.887l0.402,0.246l-1.182,1.182  v-0.649L54.611,60.887z M55.276,61.295l0.399,0.244l-1.844,1.845v-0.646L55.276,61.295z M55.939,61.701l0.399,0.244l-2.507,2.509  v-0.646L55.939,61.701z M56.604,62.107l0.4,0.245l-3.172,3.173v-0.646L56.604,62.107z M57.269,62.516l0.399,0.244l-3.836,3.835  v-0.646L57.269,62.516z M57.932,62.922l0.398,0.244l-4.498,4.499v-0.646L57.932,62.922z M58.594,63.328l0.4,0.245l-5.162,5.162  v-0.646L58.594,63.328z M59.258,63.734l0.402,0.246l-5.828,5.825v-0.646L59.258,63.734z M60.29,72.341l4.935-4.94l0.405,0.248  l-5.34,5.339V72.341z M60.29,71.916v-0.645l4.276-4.276l0.396,0.243L60.29,71.916z M60.29,70.844V70.2l3.612-3.612l0.401,0.246  L60.29,70.844z M60.29,69.776V69.13l2.946-2.952l0.403,0.248L60.29,69.776z M60.29,68.702V68.06l2.286-2.286l0.397,0.243  L60.29,68.702z M60.29,67.634v-0.645l1.623-1.624l0.401,0.246L60.29,67.634z M60.29,66.562v-0.644l0.958-0.963l0.402,0.247  L60.29,66.562z M60.29,65.489v-0.64l0.298-0.299l0.396,0.244L60.29,65.489z M60.29,64.425v-0.058l0.036,0.022L60.29,64.425z   M53.832,70.229l5.858-5.852v0.646l-5.728,5.721l-0.131-0.08V70.229z M59.69,65.448v0.642l-5.06,5.064l-0.404-0.248L59.69,65.448z   M59.69,66.52v0.643l-4.399,4.396l-0.396-0.244L59.69,66.52z M59.69,67.588v0.645l-3.735,3.732l-0.401-0.246L59.69,67.588z   M59.69,68.658v0.645l-3.069,3.07l-0.403-0.247L59.69,68.658z M59.69,69.73v0.646l-2.404,2.405l-0.401-0.246L59.69,69.73z   M59.69,70.8v0.644l-1.743,1.742l-0.398-0.244L59.69,70.8z M59.69,71.87v0.646l-1.077,1.078l-0.403-0.246L59.69,71.87z   M60.29,73.411l5.603-5.601l0.249,0.152v0.244l-5.852,5.851V73.411z M60.039,52.557l-5.744-3.521l9.216-2.347l5.739,3.527  L60.039,52.557z M63.26,46.135l-9.428,2.4V38.199l9.428-2.397V46.135z M43.553,40.19l-5.738-3.52l9.211-2.345l5.744,3.525  L43.553,40.19z M25.369,29.738l-0.924,0.928v-0.645l0.525-0.528L25.369,29.738z M24.551,40.195l-0.106,0.106V40.13L24.551,40.195z   M24.814,40.357l0.401,0.246l-0.771,0.77v-0.647L24.814,40.357z M24.664,51.217l0.4,0.246l-0.62,0.62v-0.646L24.664,51.217z   M24.444,61.07l5.853-5.852v0.646l-5.613,5.613l-0.24-0.148V61.07z M30.297,56.289v0.646l-4.947,4.951l-0.403-0.247L30.297,56.289z   M30.297,57.36v0.646l-4.287,4.287l-0.397-0.244L30.297,57.36z M30.297,58.434v0.643l-3.625,3.623l-0.399-0.245L30.297,58.434z   M30.297,59.5v0.646l-2.958,2.963l-0.405-0.248L30.297,59.5z M30.297,60.574v0.643l-2.299,2.298l-0.396-0.243L30.297,60.574z   M30.297,61.641v0.646l-1.635,1.635l-0.401-0.246L30.297,61.641z M30.297,62.713v0.645l-0.97,0.974l-0.403-0.247L30.297,62.713z   M30.297,63.787v0.641l-0.309,0.31l-0.397-0.244L30.297,63.787z M30.297,64.853v0.075l-0.046-0.029L30.297,64.853z M36.754,59.473  v0.64l-5.436,5.441l-0.401-0.245L36.754,59.473z M36.754,60.541v0.646l-4.773,4.772l-0.4-0.245L36.754,60.541z M36.754,61.611v0.647  l-4.108,4.108l-0.402-0.246L36.754,61.611z M36.754,62.683v0.646l-3.445,3.445l-0.4-0.245L36.754,62.683z M36.754,63.752v0.647  l-2.781,2.781l-0.402-0.246L36.754,63.752z M36.754,64.824v0.645l-2.118,2.118l-0.4-0.245L36.754,64.824z M36.754,65.895v0.646  L35.3,67.994l-0.401-0.246L36.754,65.895z M36.754,66.965v0.645L35.963,68.4l-0.4-0.245L36.754,66.965z M36.754,68.035v0.65  l-0.123,0.124l-0.405-0.248L36.754,68.035z M43.205,62.654v0.645l-5.851,5.852V68.51L43.205,62.654z M43.205,63.723v0.646  l-5.25,5.252l-0.401-0.246L43.205,63.723z M43.205,64.793v0.648L38.62,70.03l-0.403-0.248L43.205,64.793z M43.205,65.866v0.646  l-3.923,3.924l-0.398-0.244L43.205,65.866z M43.205,66.936v0.647l-3.257,3.262l-0.404-0.248L43.205,66.936z M43.205,68.007v0.646  l-2.593,2.6l-0.401-0.246L43.205,68.007z M43.205,69.077v0.646l-1.934,1.934l-0.396-0.243L43.205,69.077z M43.205,70.146v0.646  l-1.267,1.272l-0.404-0.248L43.205,70.146z M43.205,71.219v0.651l-0.604,0.603l-0.4-0.246L43.205,71.219z M43.205,72.293v0.55  l-0.341-0.209L43.205,72.293z M43.804,51.7l9.428-2.394v10.334l-9.428,2.4V51.7z M58.877,73.756l0.813-0.814v0.646L59.276,74  L58.877,73.756z M59.69,74.011v0.243l-0.151-0.092L59.69,74.011z M60.29,74.481l5.852-5.851v0.646l-5.538,5.537l-0.313-0.192V74.481  z M66.142,69.701v0.646l-4.874,4.874l-0.402-0.247L66.142,69.701z M66.142,70.771v0.646l-4.207,4.213l-0.405-0.248L66.142,70.771z   M66.142,71.842v0.646l-3.548,3.547l-0.396-0.243L66.142,71.842z M66.142,72.912v0.646l-2.884,2.885l-0.401-0.247L66.142,72.912z   M66.142,73.982v0.646l-2.218,2.224l-0.403-0.248L66.142,73.982z M66.142,75.053v0.648l-1.558,1.555l-0.396-0.243L66.142,75.053z   M66.142,76.125v0.646l-0.894,0.893l-0.401-0.246L66.142,76.125z M66.142,77.195v0.646l-0.229,0.23l-0.402-0.247L66.142,77.195z   M60.29,53.111l9.421-2.394v4.966v5.369l-9.421,2.394V53.111z M73.281,54.543l-2.971,0.755v-4.965h-0.299l0.156-0.255l-5.846-3.593  l8.959-2.274V54.543z M53.582,37.645l-5.743-3.524l2.885-0.728l-0.037-0.146l0,0l0.037,0.146l6.329-1.613l5.743,3.521L53.582,37.645  z M55.742,31.495l-0.873,0.223l0.791-0.792l0.404,0.248L55.742,31.495z M56.327,31.334l0.014,0.008l-0.029,0.007L56.327,31.334z   M54.3,31.862l-0.869,0.222l1.566-1.566l0.401,0.246L54.3,31.862z M52.861,32.229l-0.865,0.221l2.34-2.336l0.398,0.244  L52.861,32.229z M51.426,32.595l-0.475,0.121v-0.293l2.719-2.718l0.404,0.248L51.426,32.595z M50.951,31.999v-0.646l2.055-2.057  l0.401,0.247L50.951,31.999z M50.951,30.929v-0.646l1.389-1.395l0.403,0.248L50.951,30.929z M50.951,29.856v-0.645l0.729-0.729  l0.396,0.243L50.951,29.856z M50.951,28.788v-0.647l0.065-0.065l0.401,0.246L50.951,28.788z M50.351,32.868l-3.226,0.814  l-5.739-3.521l8.965-2.276V32.868z M24.707,29.332l-0.262,0.264v-0.425L24.707,29.332z M43.804,62.659l9.428-2.399V70.6  l-9.428,2.394V62.659z M66.49,67.474l-5.738-3.526l9.21-2.34l3.462,2.121l2.282,1.398L66.49,67.474z M73.281,43.59l-9.422,2.392  V35.649l9.422-2.395V43.59z M76.168,75.965l-9.427,2.397V68.028l9.427-2.399V75.965z"/></g><g id="SvgjsG3832" featureKey="j5pGhi-0" transform="matrix(1.9465838917034495,0,0,1.9465838917034495,137.87088650825723,48.16055905030373)" fill="#ffffff"><path d="M1.0938 19.42383 l2.0605 -14.482 l0.23438 0 l5.8887 11.875 l5.8203 -11.875 l0.23438 0 l2.0898 14.482 l-1.4355 0 l-1.416 -10.361 l-5.1172 10.361 l-0.37109 0 l-5.1855 -10.43 l-1.4063 10.43 l-1.3965 0 z M25.097659375 8.203 q2.470703125 0 4.1015625 1.787109375 q1.50390625 1.630859375 1.50390625 3.876953125 q0.01953125 5.546875 0 5.634765625 l-1.4551 0 l0 -2.4316 q-1.142578125 2.12890625 -4.150390625 2.3828125 q-2.4609375 0 -4.018554688 -1.674804688 t-1.5576 -3.9111 q0 -2.2265625 1.474609375 -3.8671875 q1.630859375 -1.796875 4.1015625 -1.796875 z M25.097659375 9.551 q-1.708984375 0 -2.939453125 1.26953125 t-1.2305 3.0664 q0 1.162109375 0.6298828125 2.236328125 t2.1338 1.8164 q3.76953125 0.83984375 5.361328125 -3.427734375 q0.087890625 -1.3671875 -0.29296875 -2.6171875 q-0.2734375 -0.56640625 -0.751953125 -1.07421875 q-1.201171875 -1.26953125 -2.91015625 -1.26953125 z M33.359403125 4.59 l1.3867 0 l0 8.457 l4.9512 -4.3164 l2.0313 0 l-4.4824 4.0723 l4.8242 6.6406 l-1.9531 0 l-4.2188 -5.7617 l-1.1523 0.94727 l0 4.8145 l-1.3867 0 l0 -14.854 z M48.05663875 13.3789 q0.595703125 -0.029296875 0.9765625 -0.25390625 q0.478515625 -0.2734375 0.7275390625 -0.78125 t0.29785 -1.416 q0.029296875 -0.44921875 0.0439453125 -2.075195313 t0.20996 -2.3242 t0.61035 -1.1084 t1.0498 -0.5957 q0.380859375 -0.1171875 1.23046875 -0.1171875 l0.54688 0 l0 1.543 l-0.30273 0 q-1.03515625 0 -1.362304688 0.380859375 t-0.32715 1.6504 q0 2.294921875 -0.068359375 2.9296875 q-0.126953125 1.201171875 -0.5712890625 1.845703125 t-1.4209 1.1133 q1.09375 0.458984375 1.577148438 1.391601563 t0.4834 3.042 q0 1.89453125 0.0390625 2.236328125 q0.05859375 0.52734375 0.244140625 0.8203125 q0.13671875 0.1953125 0.439453125 0.3076171875 t1.2695 0.1123 l0 1.543 l-0.54688 0 q-0.986328125 0 -1.435546875 -0.166015625 q-0.6640625 -0.244140625 -1.064453125 -0.7958984375 t-0.51758 -1.46 q-0.078125 -0.64453125 -0.087890625 -2.412109375 q-0.009765625 -1.81640625 -0.205078125 -2.456054688 t-0.65918 -0.99121 t-1.1768 -0.37109 l0 -1.5918 z M55.878865625 4.901999999999999 l4.5996 0 q1.71875 0 2.646484375 0.41015625 t1.46 1.2598 t0.53223 1.875 q0 0.966796875 -0.4736328125 1.7578125 t-1.3916 1.2793 q1.142578125 0.390625 1.748046875 0.9033203125 t0.94727 1.2451 t0.3418 1.5918 q0 1.748046875 -1.279296875 2.954101563 t-3.418 1.2061 l-5.7129 0 l0 -14.482 z M57.294965625 6.318 l0 4.6387 l2.5684 0 q1.50390625 0 2.211914063 -0.283203125 t1.123 -0.88379 t0.41504 -1.3428 q0 -0.99609375 -0.693359375 -1.5625 t-2.207 -0.56641 l-3.418 0 z M57.294965625 12.412099999999999 l0 5.5566 l3.5352 0 q1.58203125 0 2.319335938 -0.3125 t1.1865 -0.9668 t0.44922 -1.4355 q0 -0.95703125 -0.6298828125 -1.6796875 t-1.7334 -0.98633 q-0.7421875 -0.17578125 -2.568359375 -0.17578125 l-2.5586 0 z M67.519531875 8.477 l1.4551 0 l3.6816 8.252 l3.5742 -8.252 l1.4746 0 l-6.3965 14.619 l-1.4551 0 l2.0605 -4.7168 z M83.330053125 17.9297 q-1.015625 0.546875 -1.9921875 0.087890625 q-1.19140625 -0.908203125 -1.1328125 -2.587890625 l0 -4.5313 l2.5391 0 l0 -1.1816 l-2.5488 0 l0 -5.1758 l-1.3867 0 l0 11.123 q-0.01953125 1.171875 0.537109375 2.1484375 q0.91796875 1.552734375 2.5 1.640625 q0.83984375 0.029296875 1.9140625 -0.380859375 q-0.166015625 -0.41015625 -0.4296875 -1.142578125 z M94.970828125 15.6348 l1.1523 0.61523 q-0.556640625 1.123046875 -1.30859375 1.806640625 t-1.6895 1.04 t-2.1191 0.35645 q-2.6171875 0 -4.091796875 -1.713867188 t-1.4746 -3.8721 q0 -2.041015625 1.25 -3.6328125 q1.58203125 -2.03125 4.248046875 -2.03125 q2.724609375 0 4.365234375 2.080078125 q1.162109375 1.46484375 1.171875 3.65234375 l-9.6191 0 q0.0390625 1.875 1.19140625 3.071289063 t2.8418 1.1963 q0.8203125 0 1.591796875 -0.2880859375 t1.3135 -0.75684 t1.1768 -1.5234 z M94.970828125 12.7539 q-0.2734375 -1.103515625 -0.80078125 -1.762695313 t-1.3965 -1.0645 t-1.8262 -0.40527 q-1.572265625 0 -2.705078125 1.015625 q-0.8203125 0.7421875 -1.240234375 2.216796875 l7.9688 0 z M103.837865625 13.3789 l0 1.5918 q-0.595703125 0.009765625 -0.966796875 0.234375 q-0.48828125 0.283203125 -0.7373046875 0.7861328125 t-0.29785 1.4111 q-0.01953125 0.458984375 -0.0341796875 2.084960938 t-0.21484 2.3193 t-0.61035 1.1084 t-1.0547 0.60059 q-0.380859375 0.107421875 -1.23046875 0.107421875 l-0.54688 0 l0 -1.543 l0.30273 0 q1.03515625 0 1.3671875 -0.3759765625 t0.33203 -1.6455 q0 -2.34375 0.068359375 -2.98828125 q0.146484375 -1.19140625 0.6298828125 -1.865234375 t1.3525 -1.0352 q-1.142578125 -0.546875 -1.596679688 -1.450195313 t-0.4541 -2.9736 q0 -2.1875 -0.087890625 -2.55859375 q-0.107421875 -0.5078125 -0.419921875 -0.72265625 t-1.1914 -0.21484 l-0.30273 0 l0 -1.543 l0.54688 0 q0.986328125 0 1.4453125 0.17578125 q0.654296875 0.244140625 1.0546875 0.7958984375 t0.51758 1.4502 q0.087890625 0.64453125 0.087890625 2.421875 q0.01953125 1.806640625 0.2099609375 2.451171875 t0.6543 0.99609 t1.1768 0.38086 z"/></g>
			</g>
		</svg>
	